# File produced by Open Asset Import Library (http://www.assimp.sf.net)
# (assimp v5.0.1588609223)

mtllib result.mtl

# 132 vertex positions
v  -0.25382787 0.055187255 0.61450237
v  -0.0013020061 -0.026198879 0.66972154
v  -0.057947274 0.066335976 0.61515796
v  -0.00024926738 -0.025488436 0.6697076
v  -0.00099930982 0.24982187 0.61453044
v  -0.055146176 0.068424433 0.61525607
v  -0.25418571 0.052832782 0.61450619
v  -0.10136707 -0.063994586 0.61519253
v  -0.0018001096 -0.02737844 0.66966081
v  -0.10029183 -0.067306221 0.61524153
v  -0.1597739 -0.24887167 0.61452389
v  -0.0015159156 -0.028869092 0.66961128
v  -0.15807097 -0.25016686 0.61452335
v  -0.0059650484 -0.13685016 0.61523855
v  -0.00042983898 -0.029557407 0.66960204
v  -0.0024913948 -0.13685112 0.61519527
v  0.15864664 -0.25097251 0.61451471
v  0.00096817757 -0.029405504 0.66966188
v  0.16002995 -0.24917684 0.61454284
v  0.10028663 -0.067295775 0.61524945
v  0.0019030739 -0.028627604 0.67021972
v  0.10136164 -0.063987374 0.61519736
v  0.25417444 0.052810848 0.6145069
v  0.002172519 -0.027481481 0.67024654
v  0.25384539 0.05517295 0.61450279
v  0.057951204 0.06633532 0.61515909
v  0.0018804846 -0.026202247 0.66972423
v  0.055148445 0.068419576 0.61526352
v  0.0010585814 0.24974272 0.6145401
v  0.00099461747 -0.02537702 0.66962141
v  -0.057937257 0.066798389 0.61415642
v  -0.25397468 0.055389643 0.61415642
v  -0.056130677 0.066894293 0.61507559
v  -0.00091360119 -0.025766373 0.67021078
v  -0.055547938 0.068674177 0.61415642
v  -0.0011429721 0.24997833 0.61415642
v  -0.0016945913 -0.026825473 0.67023146
v  -0.25437671 0.054180294 0.61483502
v  -0.0017124724 -0.028098986 0.67006993
v  -0.10020976 -0.065472215 0.61508518
v  -0.0010117675 -0.029288173 0.67012596
v  -0.15910903 -0.24978934 0.61486882
v  0.00026283014 -0.029504642 0.67010421
v  -0.004247562 -0.13619541 0.6150822
v  0.0014567934 -0.029062033 0.66979015
v  0.15949409 -0.25042641 0.61485952
v  0.0021300039 -0.027998954 0.6702112
v  0.10020322 -0.065463424 0.61509091
v  0.002148262 -0.026720405 0.67027545
v  0.25498807 0.054248035 0.61466151
v  0.001481998 -0.025808424 0.67022812
v  0.056132469 0.066892028 0.61507928
v  0.00038528259 -0.025430888 0.66980064
v  2.51726e-05 0.25008938 0.61488116
v  0.001210512 0.24990293 0.61415642
v  0.05610675 0.068831533 0.61415642
v  0.060211066 0.067213029 0.61415642
v  0.25399798 0.055375189 0.61415642
v  0.25437784 0.052715808 0.61415642
v  0.10268783 -0.064257264 0.61415642
v  0.10135805 -0.067325518 0.61415642
v  0.16026503 -0.24921505 0.61415642
v  0.15864809 -0.25122851 0.61415642
v  -0.0027978944 -0.13753033 0.61415642
v  -0.0057973769 -0.13756314 0.61415642
v  -0.15804432 -0.2503821 0.61415642
v  -0.1599848 -0.24891576 0.61415642
v  -0.10075942 -0.067450583 0.61415642
v  -0.10165569 -0.064571142 0.61415642
v  -0.25438967 0.052736104 0.61415642
v  -0.056322049 0.067287683 0.61415642
v  0.00031335693 -0.027339205 0.67003936
v  4.5019904e-05 0.2518827 0.61415642
v  0.057487898 0.067496121 0.61415642
v  0.2560001 0.054634899 0.61415642
v  0.1011815 -0.065792561 0.61415642
v  0.16049367 -0.25188264 0.61415642
v  -0.0043261615 -0.13692173 0.61415642
v  -0.16025361 -0.25112966 0.61415642
v  -0.10061225 -0.06585288 0.61415642
v  -0.25599995 0.054650217 0.61415642
v  -0.25382787 0.055187255 0.61381042
v  -0.057947274 0.066335976 0.61315483
v  -0.0013020061 -0.026198879 0.55859125
v  -0.00024926738 -0.025488436 0.55860525
v  -0.055146176 0.068424433 0.61305672
v  -0.00099930982 0.24982187 0.61378235
v  -0.25418571 0.052832782 0.61380666
v  -0.0018001096 -0.02737844 0.55865198
v  -0.10136707 -0.063994586 0.61312026
v  -0.10029183 -0.067306221 0.61307126
v  -0.0015159156 -0.028869092 0.55870152
v  -0.1597739 -0.24887167 0.6137889
v  -0.15807097 -0.25016686 0.61378944
v  -0.00042983898 -0.029557407 0.55871075
v  -0.0059650484 -0.13685016 0.61307424
v  -0.0024913948 -0.13685112 0.61311758
v  0.00096817757 -0.029405504 0.55865091
v  0.15864664 -0.25097251 0.61379808
v  0.16002995 -0.24917684 0.61376995
v  0.0019030739 -0.028627604 0.55809307
v  0.10028663 -0.067295775 0.6130634
v  0.10136164 -0.063987374 0.61311543
v  0.002172519 -0.027481481 0.55806625
v  0.25417444 0.052810848 0.61380589
v  0.25384539 0.05517295 0.61381006
v  0.0018804846 -0.026202247 0.55858856
v  0.057951204 0.06633532 0.6131537
v  0.055148445 0.068419576 0.61304933
v  0.00099461747 -0.02537702 0.55869144
v  0.0010585814 0.24974272 0.61377269
v  -0.00091360119 -0.025766373 0.55810201
v  -0.056130677 0.066894293 0.61323726
v  -0.25437671 0.054180294 0.61347777
v  -0.0016945913 -0.026825473 0.55808133
v  -0.10020976 -0.065472215 0.61322767
v  -0.0017124724 -0.028098986 0.55824286
v  -0.15910903 -0.24978934 0.61344403
v  -0.0010117675 -0.029288173 0.55818683
v  -0.004247562 -0.13619541 0.61323059
v  0.00026283014 -0.029504642 0.55820858
v  0.15949409 -0.25042641 0.61345333
v  0.0014567934 -0.029062033 0.5585227
v  0.10020322 -0.065463424 0.61322188
v  0.0021300039 -0.027998954 0.55810165
v  0.25498807 0.054248035 0.61365134
v  0.002148262 -0.026720405 0.55803734
v  0.056132469 0.066892028 0.61323351
v  0.001481998 -0.025808424 0.55808467
v  2.51726e-05 0.25008938 0.61343169
v  0.00038528259 -0.025430888 0.55851215
v  0.00031335693 -0.027339205 0.55827349

# 81 UV coordinates
vt 0.019645805 0.59807789 0
vt 0.49793515 0.44664115 0
vt 0.37647942 0.63611859 0
vt 0.50038964 0.44809306 0
vt 0.496093 0.9677366 0
vt 0.38225141 0.64015591 0
vt 0.018854693 0.59346294 0
vt 0.28957841 0.36870426 0
vt 0.49681178 0.44390321 0
vt 0.29173124 0.36199486 0
vt 0.20056042 0.024495363 0
vt 0.49746171 0.44096684 0
vt 0.2039648 0.021956801 0
vt 0.49119565 0.216892 0
vt 0.49996614 0.43946403 0
vt 0.49816719 0.21691513 0
vt 0.80290246 0.0229882 0
vt 0.5028739 0.43996567 0
vt 0.80576754 0.026395559 0
vt 0.71114987 0.36421704 0
vt 0.50457054 0.44170904 0
vt 0.71328998 0.37077951 0
vt 0.9804731 0.59904552 0
vt 0.50501645 0.44378185 0
vt 0.97972143 0.60370773 0
vt 0.62292463 0.63701355 0
vt 0.50471354 0.44650459 0
vt 0.617414 0.64105856 0
vt 0.50019294 0.9676367 0
vt 0.50260872 0.44836563 0
vt 0.37605 0.63792944 0
vt 0.019205684 0.59877288 0
vt 0.37978306 0.6376754 0
vt 0.49913236 0.44724095 0
vt 0.38055971 0.64145041 0
vt 0.4954946 0.96831197 0
vt 0.49745068 0.44517028 0
vt 0.018713633 0.59606075 0
vt 0.49751866 0.4426223 0
vt 0.29125467 0.36550605 0
vt 0.49884027 0.44040424 0
vt 0.20198464 0.022811353 0
vt 0.5013991 0.44005752 0
vt 0.49464837 0.2176283 0
vt 0.50359201 0.4408108 0
vt 0.80454522 0.024106741 0
vt 0.50481206 0.44288236 0
vt 0.71147424 0.36769497 0
vt 0.50497657 0.44512045 0
vt 0.98168564 0.6018436 0
vt 0.50351745 0.44709086 0
vt 0.61958474 0.6383875 0
vt 0.50152051 0.44792795 0
vt 0.49812961 0.9681524 0
vt 0.50080925 0.96822429 0
vt 0.61994666 0.64242834 0
vt 0.62732172 0.63917422 0
vt 0.98013133 0.60442233 0
vt 0.98114389 0.59862638 0
vt 0.71638626 0.3699789 0
vt 0.71385425 0.36402357 0
vt 0.80663139 0.026325405 0
vt 0.80283928 0.022140503 0
vt 0.49742851 0.21462446 0
vt 0.49179024 0.21447372 0
vt 0.20410942 0.021148264 0
vt 0.19974907 0.024375439 0
vt 0.28950566 0.36166859 0
vt 0.28801006 0.36714196 0
vt 0.018159352 0.59307653 0
vt 0.37878266 0.63924843 0
vt 0.50131971 0.44418752 0
vt 0.4981246 0.97164613 0
vt 0.62238884 0.63987559 0
vt 0.98378378 0.60259908 0
vt 0.71407133 0.36686516 0
vt 0.80642247 0.021279573 0
vt 0.4945488 0.21534383 0
vt 0.19981077 0.020171583 0
vt 0.28938559 0.36452091 0
vt 0.015522484 0.59700871 0

# 132 vertex normals
vn -0.006043355 0.093961425 0.15514116
vn -0.0072114039 0.088694349 0.15816244
vn -0.006151163 0.090299204 0.15729676
vn -0.092970088 0.031904548 0.15255398
vn -0.098715357 0.03205524 0.14886838
vn -0.098226003 0.030381255 0.14954159
vn -0.060193006 -0.077890977 0.15245934
vn -0.058332935 -0.074641749 0.15478997
vn -0.058391113 -0.072913766 0.15558957
vn -0.095955089 0.030407859 0.15100344
vn -0.099790253 0.031568889 0.14825438
vn -0.094291352 0.027884051 0.15253089
vn 0.060970552 -0.083391555 0.14920622
vn 0.058825795 -0.080613613 0.15157515
vn 0.056057908 -0.08006525 0.15290886
vn -0.053795319 -0.077654272 0.15495138
vn -0.054056209 -0.07931301 0.15401761
vn -0.050494175 -0.076416738 0.15666804
vn 0.092576377 0.025655759 0.15396574
vn 0.09680137 0.03100588 0.15034021
vn 0.093020745 0.027276425 0.15341835
vn 0.058488529 -0.075288013 0.1544178
vn 0.058989968 -0.072492741 0.1555604
vn 0.058029272 -0.072717965 0.15581641
vn 0.0060149645 0.092253231 0.15616407
vn 0.0061213328 0.089611724 0.15769058
vn 0.007262636 0.088681698 0.1581672
vn 0.098462038 0.0304124 0.14937994
vn 0.097582199 0.031484652 0.14973471
vn 0.093341716 0.032219145 0.15226065
vn -0.011159334 0.18113399 5.6697741e-07
vn -0.011225881 0.18112987 6.7204735e-07
vn -0.051034383 0.065974765 0.16117343
vn -0.050681852 0.064638972 0.16182461
vn -0.17367925 0.052626722 -2.6629681e-07
vn -0.17364511 0.052739266 -3.3965634e-08
vn -0.035392016 0.010216895 0.1776994
vn -0.034378119 0.01488022 0.17756908
vn -0.080003247 -0.02282707 0.16128378
vn -0.081306994 -0.023145847 0.16058485
vn -0.018252116 -0.031175472 0.17784545
vn -0.019326143 -0.030981539 0.17776586
vn 0.0019911502 -0.082213417 0.16177467
vn 0.0019759298 -0.083387785 0.16117266
vn 0.0041603912 -0.041043997 0.17672616
vn -0.0013317144 -0.045183796 0.17575751
vn 0.079845965 -0.026028011 0.16087641
vn 0.081759758 -0.02318714 0.16034885
vn 0.030711209 0.02518905 0.17707735
vn 0.026930906 0.038015459 0.17539556
vn 0.051635507 0.064228036 0.16168669
vn 0.051269814 0.065509856 0.16128831
vn 6.6370914e-05 0.03548358 0.17797463
vn 0.002288948 0.035860121 0.17788441
vn 0.17354538 0.053066496 2.8459598e-07
vn 0.17345259 0.053369038 -1.7635689e-07
vn 0.011046078 0.18114093 6.2031302e-07
vn 0.011522047 0.18111128 9.7626184e-07
vn 0.11105883 -0.14352697 9.4163056e-07
vn 0.11092369 -0.14363141 8.9168071e-07
vn 0.172722 0.055688083 2.5778217e-08
vn 0.1727933 0.055466466 1.8528257e-07
vn -0.10402879 -0.14870125 -3.9218978e-08
vn -0.10413069 -0.14862992 -8.4291052e-08
vn 0.10773946 -0.14603513 -4.7180414e-08
vn 0.10754601 -0.14617765 2.3650092e-07
vn -0.1726857 0.055800557 2.551764e-08
vn -0.17265789 0.055886526 -8.0964327e-08
vn -0.11103194 -0.14354777 5.5759045e-07
vn -0.1109708 -0.14359505 5.1261509e-07
vn -0.11551382 0.13996646 -6.0249607e-07
vn -0.0089901807 0.0027684632 0.18123347
vn 0.0061327456 0.18137376 -1.1202061e-06
vn 0.068635166 0.16799782 -7.5408275e-07
vn 0.17437546 0.050271783 -1.5910763e-06
vn 0.17041938 -0.062380183 2.2278726e-07
vn 0.13375442 -0.12265322 8.0826908e-07
vn 0.0057371496 -0.18138671 3.3771425e-08
vn -0.11495102 -0.14042903 4.1044584e-07
vn -0.17588319 -0.044711985 5.3310924e-07
vn -0.17852813 0.032584671 -3.2691821e-07
vn -0.006043354 0.093961544 -0.15514109
vn -0.0061511663 0.090299197 -0.15729676
vn -0.0072114207 0.088694416 -0.15816243
vn -0.092970133 0.031904548 -0.15255395
vn -0.098225988 0.030381249 -0.1495416
vn -0.09871532 0.032055188 -0.14886841
vn -0.060193039 -0.077890918 -0.15245937
vn -0.058391128 -0.072913736 -0.15558957
vn -0.058332928 -0.074641764 -0.15478994
vn -0.095955089 0.030407852 -0.15100344
vn -0.094291367 0.027884005 -0.15253089
vn -0.099790186 0.031568855 -0.14825444
vn 0.060970467 -0.083391473 -0.14920628
vn 0.056057893 -0.080065265 -0.15290885
vn 0.058825769 -0.080613591 -0.15157516
vn -0.053795319 -0.077654272 -0.15495138
vn -0.050494146 -0.076416716 -0.15666805
vn -0.054056153 -0.079312973 -0.15401764
vn 0.092576295 0.025655687 -0.1539658
vn 0.093020745 0.027276449 -0.15341835
vn 0.096801385 0.031005893 -0.15034021
vn 0.058488552 -0.075288065 -0.15441778
vn 0.058029242 -0.072718054 -0.15581638
vn 0.058989931 -0.072492838 -0.15556037
vn 0.0060149319 0.092253275 -0.15616405
vn 0.0072626276 0.088681735 -0.15816718
vn 0.0061213379 0.089611761 -0.15769055
vn 0.098462015 0.030412402 -0.14937995
vn 0.09334179 0.032219149 -0.1522606
vn 0.097582296 0.031484608 -0.14973466
vn -0.050681617 0.064638913 -0.16182472
vn -0.051034085 0.065974705 -0.16117355
vn -0.0343781 0.014882431 -0.17756888
vn -0.035392065 0.010218956 -0.17769925
vn -0.08130724 -0.023146175 -0.16058467
vn -0.080003463 -0.022827368 -0.16128364
vn -0.019326167 -0.030981598 -0.17776583
vn -0.018252166 -0.031175535 -0.17784543
vn 0.001975935 -0.0833878 -0.16117264
vn 0.001991153 -0.082213439 -0.16177465
vn -0.0013314581 -0.045183618 -0.17575756
vn 0.0041604941 -0.041043922 -0.17672616
vn 0.081759855 -0.023187153 -0.1603488
vn 0.079846047 -0.026028153 -0.16087633
vn 0.026930297 0.038015898 -0.17539556
vn 0.030710589 0.025189448 -0.1770774
vn 0.051269766 0.065509915 -0.16128831
vn 0.0516355 0.064228073 -0.16168667
vn 0.002289495 0.035860103 -0.1778844
vn 6.6797787e-05 0.035483588 -0.17797463
vn -0.0089903558 0.0027688618 -0.18123344

# Mesh 'mesh_id90' with 260 faces
g mesh_id90
usemtl 100
f  1/1/1 2/2/2 3/3/3
f  4/4/4 5/5/5 6/6/6
f  7/7/7 8/8/8 9/9/9
f  10/10/10 11/11/11 12/12/12
f  13/13/13 14/14/14 15/15/15
f  16/16/16 17/17/17 18/18/18
f  19/19/19 20/20/20 21/21/21
f  22/22/22 23/23/23 24/24/24
f  25/25/25 26/26/26 27/27/27
f  28/28/28 29/29/29 30/30/30
f  3/3/3 31/31/31 32/32/32
f  32/32/32 1/1/1 3/3/3
f  6/6/6 33/33/33 34/34/34
f  34/34/34 4/4/4 6/6/6
f  33/33/33 3/3/3 2/2/2
f  2/2/2 34/34/34 33/33/33
f  35/35/35 6/6/6 5/5/5
f  5/5/5 36/36/36 35/35/35
f  9/9/9 37/37/37 38/38/38
f  38/38/38 7/7/7 9/9/9
f  37/37/37 2/2/2 1/1/1
f  1/1/1 38/38/38 37/37/37
f  12/12/12 39/39/39 40/40/40
f  40/40/40 10/10/10 12/12/12
f  39/39/39 9/9/9 8/8/8
f  8/8/8 40/40/40 39/39/39
f  15/15/15 41/41/41 42/42/42
f  42/42/42 13/13/13 15/15/15
f  41/41/41 12/12/12 11/11/11
f  11/11/11 42/42/42 41/41/41
f  18/18/18 43/43/43 44/44/44
f  44/44/44 16/16/16 18/18/18
f  43/43/43 15/15/15 14/14/14
f  14/14/14 44/44/44 43/43/43
f  21/21/21 45/45/45 46/46/46
f  46/46/46 19/19/19 21/21/21
f  45/45/45 18/18/18 17/17/17
f  17/17/17 46/46/46 45/45/45
f  24/24/24 47/47/47 48/48/48
f  48/48/48 22/22/22 24/24/24
f  47/47/47 21/21/21 20/20/20
f  20/20/20 48/48/48 47/47/47
f  27/27/27 49/49/49 50/50/50
f  50/50/50 25/25/25 27/27/27
f  49/49/49 24/24/24 23/23/23
f  23/23/23 50/50/50 49/49/49
f  30/30/30 51/51/51 52/52/52
f  52/52/52 28/28/28 30/30/30
f  51/51/51 27/27/27 26/26/26
f  26/26/26 52/52/52 51/51/51
f  4/4/4 53/53/53 54/54/54
f  54/54/54 5/5/5 4/4/4
f  53/53/53 30/30/30 29/29/29
f  29/29/29 54/54/54 53/53/53
f  55/55/55 29/29/29 28/28/28
f  28/28/28 56/56/56 55/55/55
f  57/57/57 26/26/26 25/25/25
f  25/25/25 58/58/58 57/57/57
f  59/59/59 23/23/23 22/22/22
f  22/22/22 60/60/60 59/59/59
f  61/61/61 20/20/20 19/19/19
f  19/19/19 62/62/62 61/61/61
f  63/63/63 17/17/17 16/16/16
f  16/16/16 64/64/64 63/63/63
f  65/65/65 14/14/14 13/13/13
f  13/13/13 66/66/66 65/65/65
f  67/67/67 11/11/11 10/10/10
f  10/10/10 68/68/68 67/67/67
f  69/69/69 8/8/8 7/7/7
f  7/7/7 70/70/70 69/69/69
f  31/31/31 3/3/3 33/33/33
f  33/33/33 71/71/71 31/31/31
f  33/33/33 6/6/6 35/35/35
f  35/35/35 71/71/71 33/33/33
f  34/34/34 2/2/2 72/72/72
f  37/37/37 9/9/9 72/72/72
f  39/39/39 12/12/12 72/72/72
f  41/41/41 15/15/15 72/72/72
f  43/43/43 18/18/18 72/72/72
f  45/45/45 21/21/21 72/72/72
f  47/47/47 24/24/24 72/72/72
f  49/49/49 27/27/27 72/72/72
f  51/51/51 30/30/30 72/72/72
f  53/53/53 4/4/4 72/72/72
f  36/36/36 5/5/5 54/54/54
f  54/54/54 73/73/73 36/36/36
f  54/54/54 29/29/29 55/55/55
f  55/55/55 73/73/73 54/54/54
f  56/56/56 28/28/28 52/52/52
f  52/52/52 74/74/74 56/56/56
f  52/52/52 26/26/26 57/57/57
f  57/57/57 74/74/74 52/52/52
f  58/58/58 25/25/25 50/50/50
f  50/50/50 75/75/75 58/58/58
f  50/50/50 23/23/23 59/59/59
f  59/59/59 75/75/75 50/50/50
f  60/60/60 22/22/22 48/48/48
f  48/48/48 76/76/76 60/60/60
f  48/48/48 20/20/20 61/61/61
f  61/61/61 76/76/76 48/48/48
f  62/62/62 19/19/19 46/46/46
f  46/46/46 77/77/77 62/62/62
f  46/46/46 17/17/17 63/63/63
f  63/63/63 77/77/77 46/46/46
f  64/64/64 16/16/16 44/44/44
f  44/44/44 78/78/78 64/64/64
f  44/44/44 14/14/14 65/65/65
f  65/65/65 78/78/78 44/44/44
f  66/66/66 13/13/13 42/42/42
f  42/42/42 79/79/79 66/66/66
f  42/42/42 11/11/11 67/67/67
f  67/67/67 79/79/79 42/42/42
f  68/68/68 10/10/10 40/40/40
f  40/40/40 80/80/80 68/68/68
f  40/40/40 8/8/8 69/69/69
f  69/69/69 80/80/80 40/40/40
f  70/70/70 7/7/7 38/38/38
f  38/38/38 81/81/81 70/70/70
f  38/38/38 1/1/1 32/32/32
f  32/32/32 81/81/81 38/38/38
f  72/72/72 30/30/30 53/53/53
f  72/72/72 27/27/27 51/51/51
f  72/72/72 24/24/24 49/49/49
f  72/72/72 21/21/21 47/47/47
f  72/72/72 18/18/18 45/45/45
f  72/72/72 15/15/15 43/43/43
f  72/72/72 12/12/12 41/41/41
f  72/72/72 9/9/9 39/39/39
f  72/72/72 2/2/2 37/37/37
f  72/72/72 4/4/4 34/34/34
f  82/1/82 83/3/83 84/2/84
f  85/4/85 86/6/86 87/5/87
f  88/7/88 89/9/89 90/8/90
f  91/10/91 92/12/92 93/11/93
f  94/13/94 95/15/95 96/14/96
f  97/16/97 98/18/98 99/17/99
f  100/19/100 101/21/101 102/20/102
f  103/22/103 104/24/104 105/23/105
f  106/25/106 107/27/107 108/26/108
f  109/28/109 110/30/110 111/29/111
f  83/3/83 82/1/82 32/32/32
f  32/32/32 31/31/31 83/3/83
f  86/6/86 85/4/85 112/34/112
f  112/34/112 113/33/113 86/6/86
f  113/33/113 112/34/112 84/2/84
f  84/2/84 83/3/83 113/33/113
f  35/35/35 36/36/36 87/5/87
f  87/5/87 86/6/86 35/35/35
f  89/9/89 88/7/88 114/38/114
f  114/38/114 115/37/115 89/9/89
f  115/37/115 114/38/114 82/1/82
f  82/1/82 84/2/84 115/37/115
f  92/12/92 91/10/91 116/40/116
f  116/40/116 117/39/117 92/12/92
f  117/39/117 116/40/116 90/8/90
f  90/8/90 89/9/89 117/39/117
f  95/15/95 94/13/94 118/42/118
f  118/42/118 119/41/119 95/15/95
f  119/41/119 118/42/118 93/11/93
f  93/11/93 92/12/92 119/41/119
f  98/18/98 97/16/97 120/44/120
f  120/44/120 121/43/121 98/18/98
f  121/43/121 120/44/120 96/14/96
f  96/14/96 95/15/95 121/43/121
f  101/21/101 100/19/100 122/46/122
f  122/46/122 123/45/123 101/21/101
f  123/45/123 122/46/122 99/17/99
f  99/17/99 98/18/98 123/45/123
f  104/24/104 103/22/103 124/48/124
f  124/48/124 125/47/125 104/24/104
f  125/47/125 124/48/124 102/20/102
f  102/20/102 101/21/101 125/47/125
f  107/27/107 106/25/106 126/50/126
f  126/50/126 127/49/127 107/27/107
f  127/49/127 126/50/126 105/23/105
f  105/23/105 104/24/104 127/49/127
f  110/30/110 109/28/109 128/52/128
f  128/52/128 129/51/129 110/30/110
f  129/51/129 128/52/128 108/26/108
f  108/26/108 107/27/107 129/51/129
f  85/4/85 87/5/87 130/54/130
f  130/54/130 131/53/131 85/4/85
f  131/53/131 130/54/130 111/29/111
f  111/29/111 110/30/110 131/53/131
f  55/55/55 56/56/56 109/28/109
f  109/28/109 111/29/111 55/55/55
f  57/57/57 58/58/58 106/25/106
f  106/25/106 108/26/108 57/57/57
f  59/59/59 60/60/60 103/22/103
f  103/22/103 105/23/105 59/59/59
f  61/61/61 62/62/62 100/19/100
f  100/19/100 102/20/102 61/61/61
f  63/63/63 64/64/64 97/16/97
f  97/16/97 99/17/99 63/63/63
f  65/65/65 66/66/66 94/13/94
f  94/13/94 96/14/96 65/65/65
f  67/67/67 68/68/68 91/10/91
f  91/10/91 93/11/93 67/67/67
f  69/69/69 70/70/70 88/7/88
f  88/7/88 90/8/90 69/69/69
f  31/31/31 71/71/71 113/33/113
f  113/33/113 83/3/83 31/31/31
f  113/33/113 71/71/71 35/35/35
f  35/35/35 86/6/86 113/33/113
f  112/34/112 132/72/132 84/2/84
f  115/37/115 132/72/132 89/9/89
f  117/39/117 132/72/132 92/12/92
f  119/41/119 132/72/132 95/15/95
f  121/43/121 132/72/132 98/18/98
f  123/45/123 132/72/132 101/21/101
f  125/47/125 132/72/132 104/24/104
f  127/49/127 132/72/132 107/27/107
f  129/51/129 132/72/132 110/30/110
f  131/53/131 132/72/132 85/4/85
f  36/36/36 73/73/73 130/54/130
f  130/54/130 87/5/87 36/36/36
f  130/54/130 73/73/73 55/55/55
f  55/55/55 111/29/111 130/54/130
f  56/56/56 74/74/74 128/52/128
f  128/52/128 109/28/109 56/56/56
f  128/52/128 74/74/74 57/57/57
f  57/57/57 108/26/108 128/52/128
f  58/58/58 75/75/75 126/50/126
f  126/50/126 106/25/106 58/58/58
f  126/50/126 75/75/75 59/59/59
f  59/59/59 105/23/105 126/50/126
f  60/60/60 76/76/76 124/48/124
f  124/48/124 103/22/103 60/60/60
f  124/48/124 76/76/76 61/61/61
f  61/61/61 102/20/102 124/48/124
f  62/62/62 77/77/77 122/46/122
f  122/46/122 100/19/100 62/62/62
f  122/46/122 77/77/77 63/63/63
f  63/63/63 99/17/99 122/46/122
f  64/64/64 78/78/78 120/44/120
f  120/44/120 97/16/97 64/64/64
f  120/44/120 78/78/78 65/65/65
f  65/65/65 96/14/96 120/44/120
f  66/66/66 79/79/79 118/42/118
f  118/42/118 94/13/94 66/66/66
f  118/42/118 79/79/79 67/67/67
f  67/67/67 93/11/93 118/42/118
f  68/68/68 80/80/80 116/40/116
f  116/40/116 91/10/91 68/68/68
f  116/40/116 80/80/80 69/69/69
f  69/69/69 90/8/90 116/40/116
f  70/70/70 81/81/81 114/38/114
f  114/38/114 88/7/88 70/70/70
f  114/38/114 81/81/81 32/32/32
f  32/32/32 82/1/82 114/38/114
f  132/72/132 131/53/131 110/30/110
f  132/72/132 129/51/129 107/27/107
f  132/72/132 127/49/127 104/24/104
f  132/72/132 125/47/125 101/21/101
f  132/72/132 123/45/123 98/18/98
f  132/72/132 121/43/121 95/15/95
f  132/72/132 119/41/119 92/12/92
f  132/72/132 117/39/117 89/9/89
f  132/72/132 115/37/115 84/2/84
f  132/72/132 112/34/112 85/4/85

